<?xml version="1.0" encoding="UTF-8"?>
<!DOCTYPE svg PUBLIC "-//W3C//DTD SVG 1.1//EN" "http://www.w3.org/Graphics/SVG/1.1/DTD/svg11.dtd">
<!-- Creator: CorelDRAW 2019 (64-Bit) -->
<svg xmlns="http://www.w3.org/2000/svg" xml:space="preserve" width="115.229mm" height="41.1427mm" version="1.1" style="shape-rendering:geometricPrecision; text-rendering:geometricPrecision; image-rendering:optimizeQuality; fill-rule:evenodd; clip-rule:evenodd"
viewBox="0 0 435.25 155.41"
 xmlns:xlink="http://www.w3.org/1999/xlink"
 xmlns:xodm="http://www.corel.com/coreldraw/odm/2003">
 <defs>
  <style type="text/css">
   <![CDATA[
    .str0 {stroke:#FEFEFE;stroke-width:2.67;stroke-miterlimit:22.9256}
    .str1 {stroke:#FEFEFE;stroke-width:0.29;stroke-miterlimit:22.9256}
    .fil2 {fill:none}
    .fil3 {fill:none;fill-rule:nonzero}
    .fil0 {fill:#FEFEFE}
    .fil1 {fill:#FEFEFE;fill-rule:nonzero}
   ]]>
  </style>
   <clipPath id="id0" style="clip-rule:nonzero">
    <path d="M346.62 33.77c3.23,0 5.66,-0.13 7.27,-0.38 1.62,-0.25 2.75,-0.71 3.39,-1.37 0.64,-0.66 0.96,-1.64 0.96,-2.92 0,-1.29 -0.3,-2.25 -0.91,-2.89 -0.6,-0.64 -1.71,-1.08 -3.33,-1.31 -1.62,-0.23 -4.08,-0.35 -7.39,-0.35l-8.06 0 0 9.23 8.06 0zm4.09 -20.8c7.75,0 13.15,1.37 16.18,4.12 3.04,2.75 4.56,6.61 4.56,11.6 0,3.43 -0.6,6.34 -1.81,8.73 -1.21,2.4 -3.33,4.27 -6.37,5.61 -3.04,1.34 -7.23,2.02 -12.56,2.02l-12.15 0 0 10.28 -14.37 0c0.31,-7.56 0.47,-14.63 0.47,-21.21 0,-6.58 -0.16,-13.65 -0.47,-21.21l14.37 0 0 0.06 12.15 0z"/>
   </clipPath>
   <clipPath id="id1">
    <path d="M346.62 33.77c3.23,0 5.66,-0.13 7.27,-0.38 1.62,-0.25 2.75,-0.71 3.39,-1.37 0.64,-0.66 0.96,-1.64 0.96,-2.92 0,-1.29 -0.3,-2.25 -0.91,-2.89 -0.6,-0.64 -1.71,-1.08 -3.33,-1.31 -1.62,-0.23 -4.08,-0.35 -7.39,-0.35l-8.06 0 0 9.23 8.06 0zm4.09 -20.8c7.75,0 13.15,1.37 16.18,4.12 3.04,2.75 4.56,6.61 4.56,11.6 0,3.43 -0.6,6.34 -1.81,8.73 -1.21,2.4 -3.33,4.27 -6.37,5.61 -3.04,1.34 -7.23,2.02 -12.56,2.02l-12.15 0 0 10.28 -14.37 0c0.31,-7.56 0.47,-14.63 0.47,-21.21 0,-6.58 -0.16,-13.65 -0.47,-21.21l14.37 0 0 0.06 12.15 0z"/>
   </clipPath>
 </defs>
 <g id="图层_x0020_1">
  <metadata id="CorelCorpID_0Corel-Layer"/>
  <g id="_2162018210816">
   <path class="fil0 str0" d="M3.61 51.01l0 30.27 6.64 -0.15c4.35,-0.12 7.26,-0.33 8.54,-0.62 10.74,-2.53 18.99,-9.94 22.41,-20.15 1.16,-3.45 1.49,-6.28 1.31,-10.89 -0.21,-5.95 -1.55,-10.12 -4.85,-15.21 -3.87,-5.92 -9.79,-10.24 -17.08,-12.47 -2.35,-0.71 -3.04,-0.77 -9.73,-0.92l-7.23 -0.12 0 30.27zm71.01 -29.73c-13.18,2.83 -22.68,13.48 -23.99,26.93 -0.89,9.17 2.56,18.18 9.52,24.76 3.1,2.95 6.31,4.91 10.27,6.34 3.96,1.4 7.53,1.9 13.93,1.9l5.27 0 0 -60.42 -6.46 0.03c-4.52,0 -7.11,0.15 -8.54,0.45l0 0zm33.21 29.64l0.09 30.15 12.65 0c9.2,0 13.18,-0.12 14.58,-0.39 6.34,-1.28 12.11,-4.4 16.37,-8.9 3.54,-3.69 5.77,-7.59 7.35,-12.74 0.74,-2.5 0.8,-3.07 0.8,-8.04 0.03,-4.7 -0.06,-5.63 -0.65,-7.71 -2.14,-7.47 -6.58,-13.63 -12.62,-17.56 -2.89,-1.88 -5.06,-2.89 -8.57,-3.99l-2.53 -0.77 -13.78 -0.12 -13.75 -0.09 0.06 30.15zm24.55 -20.86c4.91,0.65 8.42,2.41 12.02,5.92 6.76,6.64 8.3,16.37 3.96,24.73 -2.08,3.96 -5.24,6.96 -9.49,9.05 -3.93,1.93 -5.86,2.23 -14.58,2.23l-7.29 0 0 -20.92c0,-11.52 0.09,-21.04 0.21,-21.13 0.33,-0.33 12.65,-0.24 15.18,0.12zm80.15 20.95l0 30.21 9.23 0 0 -60.42 -9.23 0 0 30.21zm16.96 0l0 30.21 8.93 0 0 -1.79c0,-0.98 0.06,-1.79 0.15,-1.79 0.06,0 0.98,0.45 1.99,1.01 6.01,3.27 12.89,3.36 19.29,0.27 2.35,-1.13 3.21,-1.76 5.36,-3.93 2.14,-2.11 2.83,-3.04 3.99,-5.39 3.04,-6.16 3.04,-12.32 0.03,-18.6 -3.57,-7.47 -11.73,-12.23 -19.94,-11.64 -3.42,0.24 -6.7,1.25 -9.14,2.77 -0.63,0.39 -1.25,0.68 -1.43,0.68 -0.21,0 -0.3,-3.72 -0.3,-11.01l0 -11.01 -8.93 0 0 30.21zm24.76 -2.83c6.52,1.99 10.36,9.23 8.33,15.68 -1.85,5.89 -7.98,9.76 -13.87,8.78 -2.86,-0.45 -5,-1.55 -6.99,-3.54 -3.9,-3.93 -4.88,-9.26 -2.59,-14.23 0.8,-1.79 3.01,-4.32 4.7,-5.39 2.98,-1.88 6.96,-2.38 10.42,-1.31zm-72.53 -8.51c-7.53,1.46 -13.69,6.9 -16.13,14.32 -0.68,2.08 -0.77,2.86 -0.77,6.25 0,3.39 0.09,4.17 0.77,6.25 1.1,3.36 2.68,5.89 5.27,8.51 2.5,2.53 5.06,4.11 8.57,5.27 1.99,0.65 2.8,0.77 6.16,0.77 3.36,0 4.17,-0.12 6.16,-0.77 3.54,-1.16 6.07,-2.74 8.57,-5.27 2.59,-2.65 4.17,-5.18 5.27,-8.51 0.65,-1.99 0.77,-2.95 0.8,-5.95 0.03,-4.08 -0.42,-6.16 -2.05,-9.52 -3.99,-8.24 -13.6,-13.09 -22.62,-11.34l0 0zm7.5 8.45c3.48,1.1 6.13,3.39 7.74,6.82 3.6,7.53 -1.13,16.31 -9.55,17.71 -7.68,1.28 -14.97,-5.45 -14.37,-13.3 0.59,-8.07 8.54,-13.6 16.19,-11.22l0 0z"/>
   <path class="fil0 str0" d="M271.73 40.51c0.3,0.71 4.11,9.29 8.48,19.11l7.92 17.8 -2.14 4.82c-1.16,2.62 -2.32,5.09 -2.56,5.45 -1.1,1.73 -3.93,2.38 -6.19,1.43l-1.04 -0.42 -0.54 1.25c-0.3,0.68 -1.1,2.5 -1.79,4.02 -0.68,1.55 -1.16,2.89 -1.07,3.04 0.09,0.12 1.19,0.68 2.47,1.22 2.08,0.92 2.56,1.01 5.27,1.01 2.77,0 3.12,-0.06 4.97,-0.98 2.26,-1.1 4.43,-3.1 5.36,-4.94 0.86,-1.7 23.78,-52.89 23.96,-53.54 0.15,-0.48 -0.18,-0.51 -4.79,-0.45l-4.97 0.09 -5.51 12.35c-3.04,6.79 -5.71,12.83 -5.95,13.39l-0.45 1.04 -5.98 -13.48 -5.98 -13.45 -10 -0 0.54 1.25z"/>
   <path class="fil0 str0" d="M271.73 40.51c0.3,0.71 4.11,9.29 8.48,19.11l7.92 17.8 -2.14 4.82c-1.16,2.62 -2.32,5.09 -2.56,5.45 -1.1,1.73 -3.93,2.38 -6.19,1.43l-1.04 -0.42 -0.54 1.25c-0.3,0.68 -1.1,2.5 -1.79,4.02 -0.68,1.55 -1.16,2.89 -1.07,3.04 0.09,0.12 1.19,0.68 2.47,1.22 2.08,0.92 2.56,1.01 5.27,1.01 2.77,0 3.12,-0.06 4.97,-0.98 2.26,-1.1 4.43,-3.1 5.36,-4.94 0.86,-1.7 23.78,-52.89 23.96,-53.54 0.15,-0.48 -0.18,-0.51 -4.79,-0.45l-4.97 0.09 -5.51 12.35c-3.04,6.79 -5.71,12.83 -5.95,13.39l-0.45 1.04 -5.98 -13.48 -5.98 -13.45 -10 -0 0.54 1.25z"/>
  </g>
  <path class="fil1 str0" d="M104.62 108.82l-10.14 27.57 -3.88 0 -9.94 -27.57 3.88 0 7.46 21.61c0.12,0.35 0.24,0.75 0.32,1.16 0.09,0.42 0.17,0.85 0.24,1.32l0.07 0c0.05,-0.4 0.13,-0.81 0.24,-1.23 0.11,-0.42 0.24,-0.85 0.39,-1.29l7.59 -21.57 3.77 0zm14.33 27.57l-3.5 0 0 -27.57 3.5 0 0 27.57zm11.85 -2.15l1.69 -2.67c1.14,0.77 2.28,1.33 3.41,1.67 1.13,0.34 2.41,0.52 3.87,0.52 1.65,0 3.01,-0.39 4.06,-1.16 1.05,-0.77 1.57,-1.88 1.57,-3.35 0,-1.31 -0.44,-2.35 -1.33,-3.13 -0.89,-0.79 -2.34,-1.54 -4.38,-2.25 -2.64,-0.91 -4.59,-1.96 -5.85,-3.14 -1.25,-1.19 -1.88,-2.76 -1.88,-4.72 0,-2.26 0.82,-4.09 2.45,-5.52 1.63,-1.42 3.8,-2.13 6.5,-2.13 1.26,0 2.49,0.14 3.69,0.43 1.21,0.29 2.42,0.74 3.66,1.36l-1.42 2.79c-1.01,-0.51 -2.01,-0.89 -3,-1.14 -0.99,-0.24 -2.04,-0.37 -3.16,-0.37 -1.61,0 -2.89,0.37 -3.83,1.13 -0.93,0.75 -1.4,1.79 -1.4,3.12 0,1.16 0.43,2.09 1.29,2.79 0.86,0.69 2.3,1.39 4.32,2.11 2.8,0.96 4.8,2.06 6,3.31 1.21,1.24 1.82,2.92 1.82,5.03 0,2.27 -0.81,4.16 -2.45,5.66 -1.63,1.51 -3.94,2.26 -6.91,2.26 -1.64,0 -3.17,-0.21 -4.59,-0.63 -1.42,-0.43 -2.8,-1.08 -4.15,-1.98zm33.84 2.15l-3.5 0 0 -27.57 3.5 0 0 27.57zm25.25 0.46c-3.9,0 -7.04,-1.29 -9.41,-3.86 -2.36,-2.57 -3.54,-5.93 -3.54,-10.05 0,-4.42 1.2,-7.95 3.62,-10.6 2.41,-2.64 5.68,-3.96 9.8,-3.96 3.82,0 6.9,1.28 9.23,3.84 2.34,2.57 3.51,5.93 3.51,10.08 0,4.48 -1.2,8.03 -3.6,10.65 -2.4,2.61 -5.6,3.92 -9.61,3.92zm0.02 -3.13c2.95,0 5.27,-0.96 6.96,-2.89 1.69,-1.93 2.54,-4.64 2.54,-8.12 0,-3.56 -0.83,-6.32 -2.47,-8.27 -1.65,-1.95 -3.92,-2.92 -6.81,-2.92 -2.82,0 -5.11,1.02 -6.86,3.06 -1.76,2.05 -2.64,4.73 -2.64,8.06 0,3.33 0.86,6.01 2.57,8.04 1.71,2.02 3.95,3.04 6.72,3.04zm47.9 2.67l-4.17 0 -13.92 -21.53c-0.19,-0.31 -0.37,-0.61 -0.52,-0.91 -0.16,-0.3 -0.3,-0.59 -0.41,-0.89l-0.12 0c0.05,0.31 0.09,0.78 0.12,1.42 0.03,0.64 0.04,1.45 0.04,2.42l0 19.48 -3.46 0 0 -27.57 4.42 0 13.54 21.16c0.28,0.45 0.52,0.83 0.71,1.15 0.19,0.32 0.33,0.56 0.42,0.74l0.08 0c-0.07,-0.39 -0.11,-0.92 -0.14,-1.59 -0.03,-0.68 -0.05,-1.48 -0.05,-2.43l0 -19.03 3.48 0 0 27.57z"/>
  <polygon class="fil2" points="-0,0 435.25,0 435.25,155.41 -0,155.41 "/>
  <path class="fil1" d="M401.89 45.34c2.26,0 4.14,-0.39 5.64,-1.17 1.5,-0.78 2.25,-1.81 2.25,-3.1 0,-1.29 -0.76,-2.31 -2.28,-3.07 -1.52,-0.76 -3.39,-1.14 -5.61,-1.14 -2.26,0 -4.15,0.38 -5.67,1.14 -1.52,0.76 -2.28,1.78 -2.28,3.07 0,1.32 0.76,2.37 2.28,3.13 1.52,0.76 3.41,1.14 5.67,1.14zm0 -16.36c2.26,0 4.14,-0.39 5.64,-1.17 1.5,-0.78 2.25,-1.81 2.25,-3.1 0,-1.29 -0.76,-2.31 -2.28,-3.07 -1.52,-0.76 -3.39,-1.14 -5.61,-1.14 -2.26,0 -4.15,0.38 -5.67,1.14 -1.52,0.76 -2.28,1.78 -2.28,3.07 0,1.32 0.76,2.37 2.28,3.13 1.52,0.76 3.41,1.14 5.67,1.14zm15.13 3.45c1.71,0.62 3.17,1.5 4.38,2.63 1.21,1.13 2.1,2.37 2.69,3.71 0.58,1.34 0.88,2.6 0.88,3.77 0,4.6 -2.04,7.98 -6.11,10.14 -4.07,2.16 -9.77,3.24 -17.09,3.24 -7.36,0 -13.09,-1.08 -17.18,-3.24 -4.09,-2.16 -6.13,-5.54 -6.13,-10.14 0,-1.87 0.67,-3.79 2.02,-5.75 1.34,-1.97 3.22,-3.42 5.64,-4.35 -2.14,-1.01 -3.75,-2.13 -4.82,-3.36 -1.07,-1.23 -1.61,-2.87 -1.61,-4.94 0,-2.41 0.84,-4.57 2.51,-6.46 1.67,-1.89 4.18,-3.36 7.51,-4.41 3.33,-1.05 7.35,-1.58 12.07,-1.58 4.67,0 8.67,0.53 11.98,1.58 3.31,1.05 5.8,2.52 7.48,4.41 1.67,1.89 2.51,4.04 2.51,6.46 0,2.1 -0.55,3.76 -1.67,4.97 -1.11,1.21 -2.79,2.32 -5.05,3.33z"/>
  <path class="fil1" d="M346.62 33.77c3.23,0 5.66,-0.13 7.27,-0.38 1.62,-0.25 2.75,-0.71 3.39,-1.37 0.64,-0.66 0.96,-1.64 0.96,-2.92 0,-1.29 -0.3,-2.25 -0.91,-2.89 -0.6,-0.64 -1.71,-1.08 -3.33,-1.31 -1.62,-0.23 -4.08,-0.35 -7.39,-0.35l-8.06 0 0 9.23 8.06 0zm4.09 -20.8c7.75,0 13.15,1.37 16.18,4.12 3.04,2.75 4.56,6.61 4.56,11.6 0,3.43 -0.6,6.34 -1.81,8.73 -1.21,2.4 -3.33,4.27 -6.37,5.61 -3.04,1.34 -7.23,2.02 -12.56,2.02l-12.15 0 0 10.28 -14.37 0c0.31,-7.56 0.47,-14.63 0.47,-21.21 0,-6.58 -0.16,-13.65 -0.47,-21.21l14.37 0 0 0.06 12.15 0z"/>
  <g style="clip-path:url(#id0)">
  </g>
  <path id="1" class="fil3" d="M346.62 33.77c3.23,0 5.66,-0.13 7.27,-0.38 1.62,-0.25 2.75,-0.71 3.39,-1.37 0.64,-0.66 0.96,-1.64 0.96,-2.92 0,-1.29 -0.3,-2.25 -0.91,-2.89 -0.6,-0.64 -1.71,-1.08 -3.33,-1.31 -1.62,-0.23 -4.08,-0.35 -7.39,-0.35l-8.06 0 0 9.23 8.06 0zm4.09 -20.8c7.75,0 13.15,1.37 16.18,4.12 3.04,2.75 4.56,6.61 4.56,11.6 0,3.43 -0.6,6.34 -1.81,8.73 -1.21,2.4 -3.33,4.27 -6.37,5.61 -3.04,1.34 -7.23,2.02 -12.56,2.02l-12.15 0 0 10.28 -14.37 0c0.31,-7.56 0.47,-14.63 0.47,-21.21 0,-6.58 -0.16,-13.65 -0.47,-21.21l14.37 0 0 0.06 12.15 0z"/>
  <g style="clip-path:url(#id1)">
   <path id="2" class="fil2 str1" d="M324.18 12.91l47.27 42.42m0 -42.42l-47.27 42.42"/>
  </g>
 </g>
</svg>
