<?xml version="1.0" encoding="UTF-8"?>
<!DOCTYPE svg PUBLIC "-//W3C//DTD SVG 1.1//EN" "http://www.w3.org/Graphics/SVG/1.1/DTD/svg11.dtd">
<!-- Creator: CorelDRAW (OEM 版本) -->
<svg xmlns="http://www.w3.org/2000/svg" xml:space="preserve" width="74.0657mm" height="41.2198mm" version="1.1" style="shape-rendering:geometricPrecision; text-rendering:geometricPrecision; image-rendering:optimizeQuality; fill-rule:evenodd; clip-rule:evenodd"
viewBox="0 0 207.22 115.32"
 xmlns:xlink="http://www.w3.org/1999/xlink"
 xmlns:xodm="http://www.corel.com/coreldraw/odm/2003">
 <defs>
  <style type="text/css">
   <![CDATA[
    .fil0 {fill:none}
    .fil1 {fill:#FEFEFE;fill-rule:nonzero}
   ]]>
  </style>
 </defs>
 <g id="图层_x0020_1">
  <metadata id="CorelCorpID_0Corel-Layer"/>
  <rect class="fil0" y="-0" width="207.22" height="115.32"/>
  <path class="fil1" d="M35.44 17.61c7.56,0 12.83,1.34 15.79,4.02 2.97,2.68 4.45,6.45 4.45,11.32 0,3.35 -0.59,6.19 -1.77,8.52 -1.18,2.34 -3.25,4.16 -6.21,5.47 -2.97,1.31 -7.05,1.97 -12.26,1.97l-11.86 0 0 10.04 -14.03 0c0.3,-7.37 0.46,-14.27 0.46,-20.7 0,-6.42 -0.15,-13.32 -0.46,-20.7l14.03 0 0 0.06 11.86 0zm-3.99 20.3c3.16,0 5.52,-0.12 7.1,-0.37 1.58,-0.25 2.68,-0.69 3.31,-1.34 0.63,-0.65 0.94,-1.6 0.94,-2.85 0,-1.25 -0.29,-2.2 -0.88,-2.82 -0.59,-0.63 -1.67,-1.05 -3.25,-1.28 -1.58,-0.23 -3.98,-0.34 -7.21,-0.34l-7.87 0 0 9.01 7.87 0zm57.19 -8.1c4.33,0 7.97,0.6 10.92,1.8 2.95,1.2 5.15,2.81 6.61,4.85 1.46,2.03 2.2,4.3 2.2,6.81 0,5.7 -1.99,9.84 -5.96,12.4 -3.97,2.57 -9.28,3.85 -15.94,3.85 -5.59,0 -10.5,-0.94 -14.74,-2.82 -4.24,-1.88 -7.31,-5.05 -9.21,-9.49 2.09,-0.3 4.38,-0.8 6.87,-1.48 2.49,-0.68 4.74,-1.39 6.76,-2.11 0.8,1.63 1.92,2.82 3.36,3.56 1.44,0.74 3.38,1.11 5.82,1.11 2.58,0 4.72,-0.42 6.41,-1.25 1.69,-0.84 2.54,-2 2.54,-3.48 0,-1.52 -0.74,-2.79 -2.22,-3.82 -1.48,-1.03 -3.74,-1.54 -6.79,-1.54 -1.98,0 -3.78,0.35 -5.42,1.06 -1.63,0.7 -2.81,1.7 -3.54,2.99l-13.17 0c0.91,-3.92 1.72,-8.13 2.42,-12.66 0.7,-4.52 1.13,-8.53 1.28,-12.03l40.03 0 0 11.06c-4.22,-0.27 -8.2,-0.43 -11.95,-0.48 -3.74,-0.06 -8.98,-0.09 -15.71,-0.09l-0.57 3.19c2.89,-0.95 6.22,-1.43 9.98,-1.43z"/>
 </g>
</svg>
